<?xml version="1.0" encoding="utf-8"?>
<!-- Generator: Adobe Illustrator 21.1.0, SVG Export Plug-In . SVG Version: 6.00 Build 0)  -->
<svg version="1.1" id="Слой_1" xmlns="http://www.w3.org/2000/svg" xmlns:xlink="http://www.w3.org/1999/xlink" x="0px" y="0px"
	 viewBox="0 0 482 601" style="enable-background:new 0 0 482 601;" xml:space="preserve">
<style type="text/css">
	.st0{fill:#FEFEFE;}
	.st1{fill:#CBDB3D;}
	.st2{fill:#303030;}
</style>
<g id="Слой_x0020_1">
	<g id="_1501965680">
		<path class="st0" d="M240.998,46.98h-0.001c-106.855,0-193.792,86.937-193.792,193.792v6.655
			c0,113.459,146.187,250.811,193.792,292.52h0.001h0.001c47.605-41.71,193.792-179.061,193.792-292.52v-6.655
			c0-106.855-86.937-193.792-193.792-193.792H240.998z"/>
		<path class="st1" d="M209.113,219.469c37.617,0,75.235,0,112.852,0c3.333,0,6.417,2.747,6.06,6.061l-14.874,138.283
			c-0.356,3.315-2.728,6.061-6.061,6.061c-27.701,0-55.401,0-83.102,0c-3.334,0-5.705-2.747-6.061-6.061L203.051,225.53
			C202.696,222.216,205.779,219.469,209.113,219.469z"/>
		<path class="st2" d="M160.316,171.675h142.97c3.504,0,6.369,2.866,6.369,6.369l0,0c0,3.504-2.866,6.369-6.369,6.369h-142.97
			c-3.504,0-6.369-2.866-6.369-6.369l0,0C153.946,174.542,156.812,171.675,160.316,171.675z"/>
		<path class="st2" d="M194.701,343.085h5.221c3.505,0,6.371,2.866,6.371,6.369l0,0c0,3.504-2.867,6.369-6.371,6.369h-10.576
			l-0.132-0.001c-3.224,0.073-6.063-2.325-6.465-5.589l-8.763-70.974c-4.161,0.289-7.447,0.33-8.037-0.009
			c-1.544-0.89-2.344-2.881-1.468-4.689l8.155-16.834c2.273-4.691,4.431-7.257,8.995-2.029l13.238,15.164
			c1.362,1.56,1.114,3.58-0.035,4.834c-0.699,0.764-4.023,1.53-8.184,2.173L194.701,343.085z"/>
		<path class="st2" d="M177.663,206.865l2.793,23.395c0.415,3.477-2.066,6.672-5.543,7.1l0,0c-3.477,0.428-6.686-2.065-7.1-5.543
			l-3.643-30.503l-0.001-0.011l-0.004-0.03c-0.032-0.256-0.047-0.516-0.047-0.779l0,0c0-2.013,0.945-3.814,2.414-4.984l0.021-0.016
			l0.007-0.006l0.115-0.089l0.007-0.005c0.675-0.509,1.458-0.886,2.315-1.093l0.057-0.013l0.017-0.003l0.027-0.006
			c0.148-0.033,0.297-0.063,0.449-0.085h0.005c0.156-0.024,0.314-0.041,0.473-0.052l0.053-0.004l0.105-0.007h0.014l0.127-0.005
			l0.034-0.001l0.13-0.001h0.031h122.477h0.028h0.046l0.107,0.002h0.011l0.13,0.005l0.033,0.001l0.129,0.008l0.033,0.002l0.13,0.011
			l0.007,0.001l0.13,0.014l0.026,0.004l0,0h0.006l0.096,0.013l0.06,0.008l0.024,0.005l0.137,0.022l0.021,0.003l0.037,0.007
			c0.829,0.154,1.593,0.464,2.266,0.899l0.004,0.002l0.038,0.026c1.744,1.139,2.902,3.108,2.902,5.334l0,0
			c0,0.188-0.009,0.374-0.025,0.557c-0.006,0.074-0.013,0.148-0.021,0.222l-4.299,40.148c4.087,0.637,7.334,1.396,8.024,2.148
			c1.15,1.255,1.396,3.274,0.035,4.834l-13.238,15.165c-4.562,5.227-6.722,2.661-8.995-2.029l-8.155-16.835
			c-0.875-1.807-0.076-3.797,1.468-4.687c0.598-0.345,3.961-0.299,8.199,0.001l3.519-33.154H177.663z"/>
		<path class="st1" d="M241,601l-14.763-11.926c-2.282-1.844-56.556-45.908-111.592-109.095
			C38.722,392.812,0.228,314.569,0.228,247.427v-6.655C0.228,108.01,108.238,0,241,0s240.772,108.01,240.772,240.772v6.655
			c0,67.143-38.494,145.386-114.417,232.552c-55.036,63.187-109.31,107.251-111.592,109.095L241,601z M241,46.98h-0.001
			c-106.855,0-193.791,86.937-193.791,193.792v6.655c0,113.459,146.187,250.811,193.791,292.52H241h0.001
			c47.605-41.71,193.792-179.061,193.792-292.52v-6.655c0-106.855-86.937-193.792-193.792-193.792H241z"/>
	</g>
</g>
</svg>
