<?xml version="1.0" encoding="utf-8"?><svg xmlns="http://www.w3.org/2000/svg" xmlns:xlink="http://www.w3.org/1999/xlink"><symbol id="checked" viewBox="0 0 426.667 426.667" xmlns="http://www.w3.org/2000/svg"><style>.ast0{fill:#cbdb3d}</style><path class="ast0" d="M213.333 0C95.518 0 0 95.514 0 213.333s95.518 213.333 213.333 213.333c117.828 0 213.333-95.514 213.333-213.333S331.157 0 213.333 0zm-39.134 322.918l-93.935-93.931 31.309-31.309 62.626 62.622 140.894-140.898 31.309 31.309-172.203 172.207z"/></symbol><symbol id="city" viewBox="0 0 1920 830" xmlns="http://www.w3.org/2000/svg"><style>.bst0{fill:url(#bSVGID_1_)}</style><g id="bСлой_x0020_1"><linearGradient id="bSVGID_1_" gradientUnits="userSpaceOnUse" x1="-15424" y1="-9481373" x2="-15424" y2="-5413493" gradientTransform="matrix(.00009 0 0 -.00009 653.943 19.071)"><stop offset="0" stop-color="#fff"/><stop offset=".6" stop-color="#f4f4f4"/><stop offset="1" stop-color="#e8e8e8"/></linearGradient><path class="bst0" d="M6.181 830H0V597.95h6.181v-58.633h7.694v-4.525H9.582v-11.798h13.93v-6.298h43.44v6.298h13.85v11.798H76.51v4.525h7.815v222.288H97.57V507.45h3.156v-4.238h67.058v4.238h3.294v56.42h9.583v-3.443h2.066l.971-23.685h1.944l.972 23.685h2.066v3.443h9.84v-7.567h38.51v7.567h7.557v210.947h9.272V473.905l91.058 64.638v254.151h6.953V546.16h14.784v-4.494h10.606v4.494H380V0h1160v546.161h2.74v-4.494h10.606v4.494h14.784v246.534h6.953V538.543l91.058-64.639v300.914h9.272V563.87h7.557v-7.569h38.51v7.569h9.84v-3.443h2.066l.972-23.685h1.944l.971 23.685h2.066v3.443h9.583v-56.42h3.294v-4.238h67.059v4.238h3.155v254.154h13.245V539.316h7.815v-4.525h-4.292v-11.798h13.85v-6.298h43.44v6.298h13.93v11.798h-4.292v4.525h7.694v58.633h6.18V830H6.181z"/></g></symbol><symbol id="logo" viewBox="0 0 462 180" xmlns="http://www.w3.org/2000/svg"><style>.cst0{fill:#cbdb3d}.cst1{fill:#303030}</style><g id="cСлой_x0020_1"><path class="cst0" d="M50.346 43.405h102.491c3.027 0 5.827 2.494 5.503 5.505l-13.509 125.586c-.324 3.01-2.477 5.505-5.503 5.505H63.856c-3.027 0-5.181-2.494-5.505-5.505L44.841 48.909c-.323-3.01 2.477-5.504 5.505-5.504z"/><path class="cst1" d="M6.03 0h129.842c3.182 0 5.784 2.603 5.784 5.784 0 3.182-2.603 5.784-5.784 5.784H6.03c-3.183 0-5.786-2.603-5.786-5.784C.245 2.603 2.848 0 6.03 0zm31.228 155.671H42c3.182 0 5.784 2.603 5.784 5.786 0 3.182-2.604 5.784-5.784 5.784h-9.606l-.12-.001c-2.926.066-5.506-2.112-5.872-5.077l-7.959-64.457c-3.778.263-6.762.301-7.298-.008-1.403-.808-2.129-2.616-1.333-4.257l7.407-15.289c2.063-4.259 4.024-6.59 8.168-1.842l12.021 13.77c1.238 1.417 1.013 3.251-.032 4.39-.635.693-3.653 1.39-7.432 1.973l7.314 59.228zM21.784 31.959l2.537 21.246c.377 3.159-1.877 6.06-5.035 6.449-3.158.389-6.071-1.875-6.448-5.035L9.53 26.917l-.001-.009-.004-.028a5.783 5.783 0 012.15-5.233l.019-.015.006-.006.104-.08.007-.004a5.687 5.687 0 012.102-.992l.051-.013.015-.004.025-.005c.133-.031.27-.057.407-.077h.004a5.14 5.14 0 01.43-.048l.048-.002.096-.006.013-.001.116-.004.031-.001.118-.001h111.326l.098.002h.009l.118.004.03.002.117.007.031.002.117.009.007.001.118.013.022.002.006.001.087.011.054.008.022.004.124.02.019.004.033.006a5.708 5.708 0 012.058.817l.004.002.034.024a5.79 5.79 0 012.635 4.844c0 .171-.008.34-.024.507l-.018.201-3.906 36.462c3.712.58 6.662 1.267 7.289 1.952 1.044 1.138 1.267 2.973.031 4.39l-12.022 13.771c-4.143 4.746-6.105 2.416-8.168-1.844l-7.407-15.288c-.795-1.642-.068-3.45 1.333-4.257.543-.313 3.598-.272 7.446.001l3.196-30.109H21.784zm116.753 131.454c.928 2.552.039 3.828-2.668 3.828h-6.031c-2.397 0-4.08-.231-5.046-.696-.967-.464-1.682-1.392-2.146-2.785l-5.337-14.964H85.292l-5.451 14.964c-.464 1.392-1.18 2.321-2.146 2.785-.967.464-2.649.696-5.046.696h-5.336c-2.707 0-3.596-1.275-2.669-3.828l29-75.401c.542-1.314 1.142-2.185 1.799-2.61.658-.425 1.682-.638 3.074-.638h6.148c1.392 0 2.436.213 3.132.638.696.425 1.275 1.257 1.74 2.494l29 75.517zm-37.212-59.672l-11.973 33.107h23.897l-11.924-33.107zm43.946 24.495c0-7.185 2.21-12.816 6.629-16.894 4.419-4.077 10.621-6.116 18.604-6.116 12.489 0 20.472 4.79 23.95 14.37.855 2.167.143 3.65-2.139 4.448l-6.586 2.31c-1.254.399-2.195.457-2.823.171-.627-.285-1.169-1.055-1.625-2.309-1.597-4.164-5.189-6.245-10.778-6.245-7.526 0-11.29 3.393-11.29 10.179v17.449c0 6.786 3.764 10.179 11.29 10.179 5.588 0 9.181-2.081 10.778-6.244.456-1.254 1.012-2.038 1.668-2.353.657-.313 1.583-.242 2.78.214l6.586 2.31c2.282.798 2.994 2.28 2.139 4.448-3.478 9.58-11.461 14.37-23.95 14.37-7.983 0-14.185-2.038-18.604-6.116-4.419-4.077-6.629-9.708-6.629-16.893v-17.278zm96.742-21.726c1.312 0 2.224.256 2.738.769.513.514.77 1.427.77 2.738v5.731c0 1.312-.257 2.21-.77 2.695-.514.484-1.425.726-2.738.726h-13.344v44.565c0 1.312-.256 2.224-.769 2.738-.514.513-1.427.77-2.738.77h-6.929c-1.311 0-2.21-.257-2.694-.77-.485-.514-.728-1.425-.728-2.738v-44.565h-13.429c-1.312 0-2.224-.242-2.738-.726-.514-.485-.77-1.383-.77-2.695v-5.731c0-1.311.256-2.224.77-2.738.514-.513 1.425-.769 2.738-.769h40.631zm36.267 0c6.443 0 11.548 1.825 15.311 5.474 3.764 3.649 5.645 8.668 5.645 15.055s-1.867 11.391-5.603 15.01c-3.734 3.622-8.853 5.433-15.354 5.433h-12.488v16.252c0 1.312-.256 2.224-.77 2.738-.514.513-1.425.77-2.738.77h-6.928c-1.312 0-2.224-.257-2.738-.77-.514-.514-.77-1.425-.77-2.738v-53.717c0-1.311.256-2.224.77-2.738.514-.513 1.425-.769 2.738-.769h22.925zm-1.454 28.226c2.51 0 4.463-.67 5.86-2.01 1.397-1.34 2.095-3.236 2.095-5.688 0-2.453-.698-4.377-2.095-5.774-1.397-1.398-3.35-2.096-5.86-2.096h-11.034v15.568h11.034zm28.055-6.5c0-7.185 2.21-12.816 6.629-16.894 4.419-4.077 10.621-6.116 18.604-6.116 8.041 0 14.271 2.04 18.69 6.116 4.419 4.078 6.629 9.709 6.629 16.894v17.278c0 7.185-2.21 12.816-6.629 16.893-4.419 4.078-10.649 6.116-18.69 6.116-7.983 0-14.185-2.038-18.604-6.116-4.419-4.077-6.629-9.708-6.629-16.893v-17.278zm36.61-.257c0-6.671-3.792-10.008-11.376-10.008-3.649 0-6.443.841-8.381 2.524-1.939 1.682-2.909 4.177-2.909 7.484v17.792c0 3.308.97 5.802 2.909 7.485 1.938 1.682 4.732 2.523 8.381 2.523 7.584 0 11.376-3.335 11.376-10.008v-17.792zm67.745-21.469c1.312 0 2.21.256 2.695.769.484.514.728 1.427.728 2.738v53.717c0 1.312-.243 2.224-.728 2.738-.485.513-1.383.77-2.695.77h-6.928c-1.312 0-2.224-.257-2.738-.77-.513-.514-.77-1.425-.77-2.738v-20.87h-20.614v20.87c0 1.312-.256 2.224-.77 2.738-.513.513-1.425.77-2.738.77h-6.928c-1.312 0-2.224-.257-2.738-.77-.514-.514-.77-1.425-.77-2.738v-53.717c0-1.311.256-2.224.77-2.738.514-.513 1.425-.769 2.738-.769h6.928c1.312 0 2.225.256 2.738.769.514.514.77 1.427.77 2.738v20.102H398.8v-20.102c0-1.311.257-2.224.77-2.738.514-.513 1.425-.769 2.738-.769h6.928zm49.098 0c1.312 0 2.21.256 2.695.769.484.514.726 1.427.726 2.738v5.731c0 1.254-.256 2.139-.77 2.652-.513.513-1.396.769-2.651.769h-21.213v44.565c0 1.312-.256 2.224-.77 2.738-.514.513-1.425.77-2.738.77h-6.928c-1.312 0-2.224-.257-2.738-.77-.514-.514-.77-1.425-.77-2.738v-53.717c0-1.311.256-2.224.77-2.738.514-.513 1.425-.769 2.738-.769h31.649z"/></g></symbol><symbol id="pdf" viewBox="0 0 44 53" xmlns="http://www.w3.org/2000/svg"><style>.dst0{fill:#fefefe}.dst1{fill:#cad1d8}.dst2{fill:#e9eff5}.dst3{fill:#c9d337}.dst4{fill:#fff}</style><g id="dСлой_x0020_1"><g id="d_1190644400"><path class="dst0" d="M9.601 1.702a3.109 3.109 0 00-3.099 3.1v43.394c0 1.705 1.394 3.1 3.099 3.1h30.996a3.108 3.108 0 003.099-3.1V14.101L31.299 1.702H9.601z"/><path class="dst1" d="M34.398 14.101h9.299L31.299 1.702v9.3a3.107 3.107 0 003.099 3.099z"/><path class="dst2" d="M43.697 23.4l-9.299-9.299h9.299z"/><path class="dst3" d="M37.498 41.998c0 .853-.697 1.55-1.55 1.55H1.852a1.554 1.554 0 01-1.549-1.55V26.5c0-.853.697-1.55 1.549-1.55h34.095c.853 0 1.55.697 1.55 1.55v15.498z"/><path class="dst4" d="M7.059 31.067c0-.409.322-.856.841-.856h2.863c1.611 0 3.062 1.079 3.062 3.146 0 1.959-1.451 3.049-3.062 3.049H8.694v1.637c0 .546-.348.854-.794.854a.834.834 0 01-.841-.854v-6.976zm1.635.705v3.087h2.068c.831 0 1.489-.733 1.489-1.501 0-.867-.658-1.586-1.489-1.586H8.694zm7.558 7.126c-.409 0-.856-.223-.856-.767v-7.04c0-.445.447-.769.856-.769h2.837c5.663 0 5.539 8.575.112 8.575h-2.949zm.781-7.063v5.551h2.056c3.347 0 3.495-5.551 0-5.551h-2.056zm9.604.099v1.97h3.159c.447 0 .893.447.893.878 0 .41-.447.745-.893.745h-3.159v2.602c0 .434-.308.768-.743.768-.546 0-.878-.334-.878-.768V31.09c0-.446.335-.77.878-.77h4.351c.546 0 .868.324.868.77a.856.856 0 01-.868.843l-3.608.001z"/><path class="dst1" d="M35.948 43.548H6.502v1.55h29.445c.853 0 1.55-.698 1.55-1.55v-1.55a1.554 1.554 0 01-1.549 1.55z"/></g></g></symbol><symbol id="point" viewBox="0 0 482 601" xmlns="http://www.w3.org/2000/svg"><style>.est0{fill:#fefefe}.est1{fill:#cbdb3d}.est2{fill:#303030}</style><g id="eСлой_x0020_1"><g id="e_1501965680"><path class="est0" d="M240.998 46.98h-.001c-106.855 0-193.792 86.937-193.792 193.792v6.655c0 113.459 146.187 250.811 193.792 292.52h.002c47.605-41.71 193.792-179.061 193.792-292.52v-6.655c0-106.855-86.937-193.792-193.792-193.792h-.001z"/><path class="est1" d="M209.113 219.469h112.852c3.333 0 6.417 2.747 6.06 6.061l-14.874 138.283c-.356 3.315-2.728 6.061-6.061 6.061h-83.102c-3.334 0-5.705-2.747-6.061-6.061L203.051 225.53c-.355-3.314 2.728-6.061 6.062-6.061z"/><path class="est2" d="M160.316 171.675h142.97c3.504 0 6.369 2.866 6.369 6.369 0 3.504-2.866 6.369-6.369 6.369h-142.97c-3.504 0-6.369-2.866-6.369-6.369-.001-3.502 2.865-6.369 6.369-6.369zm34.385 171.41h5.221c3.505 0 6.371 2.866 6.371 6.369 0 3.504-2.867 6.369-6.371 6.369h-10.576l-.132-.001c-3.224.073-6.063-2.325-6.465-5.589l-8.763-70.974c-4.161.289-7.447.33-8.037-.009-1.544-.89-2.344-2.881-1.468-4.689l8.155-16.834c2.273-4.691 4.431-7.257 8.995-2.029l13.238 15.164c1.362 1.56 1.114 3.58-.035 4.834-.699.764-4.023 1.53-8.184 2.173l8.051 65.216zm-17.038-136.22l2.793 23.395c.415 3.477-2.066 6.672-5.543 7.1-3.477.428-6.686-2.065-7.1-5.543l-3.643-30.503-.001-.011-.004-.03a6.366 6.366 0 012.367-5.763l.021-.016.007-.006.115-.089.007-.005a6.293 6.293 0 012.315-1.093l.057-.013.017-.003.027-.006c.148-.033.297-.063.449-.085h.005c.156-.024.314-.041.473-.052l.053-.004.105-.007h.014l.127-.005.034-.001.13-.001H293.07l.107.002h.011l.13.005.033.001.129.008.033.002.13.011.007.001.13.014.026.004h.006l.096.013.06.008.024.005.137.022.021.003.037.007a6.274 6.274 0 012.266.899l.004.002.038.026a6.375 6.375 0 012.902 5.334 8.325 8.325 0 01-.046.779l-4.299 40.148c4.087.637 7.334 1.396 8.024 2.148 1.15 1.255 1.396 3.274.035 4.834l-13.238 15.165c-4.562 5.227-6.722 2.661-8.995-2.029l-8.155-16.835c-.875-1.807-.076-3.797 1.468-4.687.598-.345 3.961-.299 8.199.001l3.519-33.154H177.663z"/><path class="est1" d="M241 601l-14.763-11.926c-2.282-1.844-56.556-45.908-111.592-109.095C38.722 392.812.228 314.569.228 247.427v-6.655C.228 108.01 108.238 0 241 0s240.772 108.01 240.772 240.772v6.655c0 67.143-38.494 145.386-114.417 232.552-55.036 63.187-109.31 107.251-111.592 109.095L241 601zm0-554.02h-.001c-106.855 0-193.791 86.937-193.791 193.792v6.655c0 113.459 146.187 250.811 193.791 292.52h.002c47.605-41.71 193.792-179.061 193.792-292.52v-6.655c0-106.855-86.937-193.792-193.792-193.792H241z"/></g></g></symbol><symbol id="question" viewBox="0 0 74 74" xmlns="http://www.w3.org/2000/svg"><style>.fst0{fill:#cbdb3d}</style><path class="fst0" d="M37 0C16.566 0 0 16.566 0 37s16.566 37 37 37 37-16.566 37-37S57.434 0 37 0zm4.136 52.274c0 1.516-.293 2.568-.879 3.154s-1.637.879-3.154.879H34.52c-1.551 0-2.618-.293-3.204-.879-.586-.586-.879-1.637-.879-3.154v-1.808c0-1.517.293-2.568.879-3.154.586-.586 1.654-.879 3.204-.879h2.584c1.516 0 2.568.293 3.154.879s.879 1.637.879 3.154v1.808zM50.57 32.27c-.397 1.137-.983 2.094-1.757 2.869-.775.776-1.491 1.396-2.145 1.861-.656.465-1.491.982-2.507 1.551a49.821 49.821 0 00-2.093 1.214c-1.276.862-1.913 1.809-1.913 2.843 0 .793-.155 1.336-.465 1.629-.309.293-.861.439-1.654.439h-4.652c-.793 0-1.344-.146-1.654-.439-.311-.293-.465-.836-.465-1.629 0-2.239.387-3.989 1.162-5.246.776-1.258 1.835-2.283 3.179-3.076a40.79 40.79 0 011.525-.853c.672-.361 1.18-.664 1.525-.905s.732-.552 1.163-.931a3.29 3.29 0 00.931-1.318c.189-.5.283-1.076.283-1.732 0-.895-.301-1.611-.905-2.145-.602-.534-1.489-.801-2.661-.801-1.31 0-2.343.335-3.102 1.007-.758.672-1.5 1.801-2.223 3.386-.379.827-.742 1.326-1.085 1.499-.345.172-.913.138-1.707-.104l-4.962-1.86c-1.413-.483-1.861-1.413-1.344-2.791 2.447-6.031 7.271-9.046 14.473-9.046 4.239 0 7.573.99 10.003 2.972s3.644 4.574 3.644 7.78c0 1.414-.198 2.69-.594 3.826z" id="fСлой_x0020_1"/></symbol></svg>