<?xml version="1.0" encoding="UTF-8"?>
<!DOCTYPE svg PUBLIC "-//W3C//DTD SVG 1.0//EN" "http://www.w3.org/TR/2001/REC-SVG-20010904/DTD/svg10.dtd">
<!-- Creator: CorelDRAW X7 -->
<svg xmlns="http://www.w3.org/2000/svg" xml:space="preserve" width="2011px" height="767px" version="1.0" style="shape-rendering:geometricPrecision; text-rendering:geometricPrecision; image-rendering:optimizeQuality; fill-rule:evenodd; clip-rule:evenodd"
viewBox="0 0 1284794824 490100982"
 xmlns:xlink="http://www.w3.org/1999/xlink">
 <defs>
  <style type="text/css">
   <![CDATA[
    .fil5 {fill:#212121}
    .fil28 {fill:#2A2A2A}
    .fil0 {fill:#2F2F2F}
    .fil20 {fill:#3D3D3D}
    .fil19 {fill:#424242}
    .fil3 {fill:#4B87A2}
    .fil18 {fill:#6E6E6E}
    .fil11 {fill:#729335}
    .fil6 {fill:#759736}
    .fil9 {fill:#79807E}
    .fil10 {fill:#79B7D4}
    .fil4 {fill:gray}
    .fil23 {fill:#838383}
    .fil7 {fill:#83A93C}
    .fil16 {fill:#86BBD9}
    .fil13 {fill:#8FB24C}
    .fil22 {fill:#909090}
    .fil17 {fill:#96C6DF}
    .fil15 {fill:#AE831F}
    .fil8 {fill:#B0B5B3}
    .fil12 {fill:#C0D498}
    .fil21 {fill:#C5C5C5}
    .fil27 {fill:#CBDB3D}
    .fil2 {fill:#D9A326}
    .fil1 {fill:#DFB43F}
    .fil24 {fill:#F0C741}
    .fil25 {fill:#F4D363}
    .fil26 {fill:white}
    .fil29 {fill:#2A2A2A;fill-rule:nonzero}
    .fil14 {fill:white;fill-rule:nonzero}
   ]]>
  </style>
 </defs>
 <g id="Слой_x0020_1">
  <metadata id="CorelCorpID_0Corel-Layer"/>
  <g id="_736408800">
   <rect class="fil0" x="544126960" y="280128634" width="477968117" height="117064730"/>
   <path class="fil1" d="M1037381744 152797094l109353681 0c26392932,0 42599793,14473592 46817893,23742093l55060921 120987035c3334488,7327723 4216591,13707694 4216591,20362332l0 75497956c0,8673893 -7096066,15769960 -15769959,15769960l-199679127 0c-8673893,0 -15769960,-7096067 -15769960,-15769960l0 -224819456c0,-8673893 7096067,-15769960 15769960,-15769960z"/>
   <path class="fil2" d="M1244152410 407416409c-2558779,1792881 -5667648,2866648 -9010435,2847784l-197760231 -1107723c-8673138,-48293 -15769960,-7096067 -15769960,-15769960l0 -224819456c0,-3103586 909269,-6005700 2473512,-8452047 2558780,-1792881 5666893,-2847783 9010436,-2847783l109353680 0c26392932,0 42595266,14477364 46817894,23742093l54067894 118640292c3338261,7324705 3290722,17163669 3290722,23816797l0 75497957c0,3102831 -909268,6005699 -2473512,8452046z"/>
   <path class="fil0" d="M560879797 422636280l0 -754 129928803 24901 0 5442783 23461390 19619 0 5486548 262990622 -29428 0 -5460893 265787093 0 0 -5458629 -265787093 0 -260971367 -27920c23392,-821737 36220,-1646492 36220,-2474266 0,-46977110 -38082125,-85059235 -85059235,-85059235 -34640487,0 -64441855,20709438 -77705856,50421011 -13265510,-29709309 -43064614,-50417238 -77703592,-50417238 -46977110,0 -85059235,38082125 -85059235,85059235 0,827773 12828,1652529 36220,2474266l-40907271 21883 -8098903 10925559 74486819 0 0 -10919522 144565385 -27920z"/>
   <rect class="fil3" x="103717725" y="27652325" width="105892427" height="112605164" rx="13283653" ry="14125731"/>
   <ellipse class="fil4" cx="96854074" cy="487003077" rx="95566756" ry="3097949"/>
   <path class="fil5" d="M33716882 485658771c0,1352207 -1096404,2448611 -2448611,2448611 -1352207,0 -2448611,-1096404 -2448611,-2448611l0 -5155288 4897222 0 0 5155288z"/>
   <path class="fil5" d="M40978956 485658771c0,1352207 -1096404,2448611 -2448611,2448611 -1352206,0 -2448611,-1096404 -2448611,-2448611l0 -5155288 4897222 0 0 5155288z"/>
   <path class="fil5" d="M152351892 485658771c0,1352207 -1096404,2448611 -2448611,2448611 -1352207,0 -2448611,-1096404 -2448611,-2448611l0 -5155288 4897222 0 0 5155288z"/>
   <path class="fil5" d="M159613966 485658771c0,1352207 -1096404,2448611 -2448611,2448611 -1352206,0 -2448611,-1096404 -2448611,-2448611l0 -5155288 4897222 0 0 5155288z"/>
   <path class="fil6" d="M163668323 483489355l18638117 -156584329 -175133406 0 18638117 156584329c45952391,0 91904781,0 137857172,0z"/>
   <ellipse class="fil4" cx="778398695" cy="486220916" rx="506396129" ry="3880031"/>
   <rect class="fil3" x="115216764" y="39149855" width="82895855" height="89608595" rx="1785335" ry="1785335"/>
   <path class="fil7" d="M578002718 13695620l0 -6410908 15604707 0 0 6410908 124236254 0 0 -6410908 15604707 0 0 6410908 124237009 0 0 -6410908 15604707 0 0 6410908 131418344 0 0 -6410908 4607463 0c1757416,0 3194136,1436719 3194136,3194135l0 3216773 0 9193799 0 364168431 -566769291 0 -91127564 32574449 -12785597 13951423 -64775380 23392c-2854575,0 -5103222,-2004164 -7271129,-4817991l-19296865 -25921320c-2432765,-3509550 -2432765,-7403181 -908514,-11298321l13230799 -37705590 -7567679 0 44146682 -125817853 7569188 0 23948094 -68253237 -6312814 0 44146682 -125817099 6312059 0 10519594 -29980204c970390,-3135278 3608400,-3995499 5579362,-3995499l37204549 27165c5844974,0 9582407,5575589 9073065,13574887l140577432 93568z"/>
   <rect class="fil8" x="152141364" y="147086435" width="9577125" height="159432113"/>
   <rect class="fil9" x="152141364" y="140255980" width="9577125" height="6830455"/>
   <path class="fil10" d="M201143766 28561594c4943251,1939269 8466383,6764806 8466383,12374351l0 24531384 -74790160 74790161 -17818644 0c-7306594,0 -13283620,-5977026 -13283620,-13283620l0 -986236 97426041 -97426040z"/>
   <path class="fil7" d="M6435810 296811635l88303927 0 88303927 0c3541242,0 6435810,2895322 6435810,6435056l0 15038017c0,3539733 -2894568,6435055 -6435810,6435055l-88303927 0 -88303927 0c-3541243,0 -6435810,-2895322 -6435810,-6435055l0 -15038017c0,-3539734 2894567,-6435056 6435810,-6435056z"/>
   <path class="fil6" d="M183043664 296811635l-88303927 0 -88303927 0c-666294,0 -1309951,102623 -1915878,292777l0 13058001 7164734 0c-4483713,1209591 -6689349,4853456 -6802536,10126459l-2264 74703 241466 4220364c424828,89040 863994,135824 1314478,135824l88303927 0 88303927 0c450484,0 889649,-46784 1314478,-135824l241465 -4220364 -2264 -74703c-113187,-5273003 -2318823,-8916868 -6802535,-10126459l7164734 0 0 -13058001c-605928,-190154 -1249584,-292777 -1915878,-292777z"/>
   <rect class="fil11" x="445740754" y="19004843" width="559802257" height="365824734"/>
   <rect class="fil7" x="461772551" y="35036643" width="108214270" height="333768675"/>
   <rect class="fil7" x="601614267" y="35036643" width="108213517" height="333768675"/>
   <rect class="fil7" x="741464283" y="35036643" width="108213517" height="333768675"/>
   <rect class="fil7" x="881305245" y="35036643" width="108213517" height="333768675"/>
   <path class="fil12" d="M989518758 319607486l-49197838 49197838 -59015673 0 0 -101151400 108213511 -108212756 0 160166318zm-199559148 49197838l59718186 -59718187 0 59718187 -59718186 0z"/>
   <path class="fil11" d="M345378644 431993822l-3551051 1589900 -64775380 23392c-2854575,0 -5103222,-2004164 -7271129,-4817991l-19296865 -25921320c-2432765,-3509550 -2432765,-7403181 -908514,-11298321l13230799 -37705590 -7567679 0 44146682 -125817853 7569188 0 23948094 -68253237 -6312814 0 44146682 -125817099 6312059 0 10519594 -29980204c970390,-3135278 3608400,-3995499 5579362,-3995499l37204549 27165c5844974,0 9582407,5575589 9073065,13574887l9596744 6037 -37729 1107723 -95550910 273003139c5374871,2026801 9955169,5617845 12979525,11259837 3098304,5781589 3606890,11782761 3606890,18188388l0 84518201 -22641162 30308445z"/>
   <polygon class="fil7" points="328304771,159792802 324589975,159792802 368736657,33975703 372451453,33975703 "/>
   <path class="fil7" d="M332227076 433587494l-55174863 19620c-2854575,0 -5103222,-2004164 -7271129,-4817991l-19296865 -25921320c-2432765,-3509550 -2432765,-7403181 -908514,-11298321l12470183 -35536928 1918896 -2168662 111083932 -319888189 10519594 -29980204c970390,-3135278 3608400,-3995499 5579362,-3995499l37204549 27165c5678966,0 9368106,5264702 9105512,12901048l-98785792 282245230c19765459,0 19765459,14886347 19765459,21993733l0 81333875 -26210324 35086443z"/>
   <polygon class="fil12" points="445740754,387057850 393600810,398501051 368019806,401685377 368019806,325598094 445740754,247877146 "/>
   <path class="fil12" d="M374487308 35593521l35579939 -35579939 18284974 13583c5844974,0 9582407,5575589 9073065,13574887l-5140196 14106112 -84200523 84201278 26402741 -76315921z"/>
   <path class="fil12" d="M415508521 104648877l30232233 -30232233 0 49913179 -25020351 25020351 -32088499 32088499 26876617 -76789796zm46264032 -46264032l23348203 -23348203 49911670 0 -73259873 73260627 0 -49912424z"/>
   <polygon class="fil12" points="297786552,256468035 381529800,172724033 354653937,249513829 271013312,333154454 "/>
   <path class="fil7" d="M45295906 466820691c658748,9000626 3593309,14973123 14803344,14973123l34640487 0 34640487 0c11210035,0 14144595,-5972497 14803343,-14973123l8332823 -118102277c463312,-9740114 4210555,-21794524 16796943,-21794524l12993107 -15091 375780 -6579180c-116205,-5426937 -2572362,-8569761 -8125313,-8686721l-79817170 0 -79817170 0c-5552952,116960 -8009108,3259784 -8125314,8686721l375781 6579180 12993107 15091c12586388,0 16333630,12054410 16796942,21794524l8332823 118102277z"/>
   <path class="fil7" d="M6435810 308246535l88303927 0 88303927 0 0 -13862382c-3591045,-4611991 -60764789,-4853457 -88303927,-4853457 -27539139,0 -84712883,241466 -88303927,4853457l0 13862382z"/>
   <path class="fil13" d="M45295906 466820691c658748,9000626 3593309,14973123 14803344,14973123l34640487 0 7556360 0 43930872 -43930871 6289421 -89144529c463312,-9740114 4210555,-21794524 16796943,-21794524l12993107 -15091 375780 -6579180c-116205,-5426937 -2572362,-8569761 -8125313,-8686721l-5923450 0 -125436037 125436036 2098486 29741757z"/>
   <path class="fil14" d="M94868015 373784040c215810,-327487 409737,-547070 553862,-684404 161480,153935 383326,409737 630074,803628l8246801 11850673 -2865894 1659320 11405471 3230356 2831183 -11474893 -2910414 1684977 -8421863 -12129868c-2207145,-3532187 -5335632,-5500131 -8807453,-5542387 -3436356,-43011 -6570125,1813255 -8818772,5222445l-11507340 17448900 8157006 5379398 11507339 -17448145z"/>
   <path class="fil14" d="M128188743 422496683c1872112,-2881740 1976998,-6522586 296550,-10244928l-8602208 -19049363 -8905549 4021910 8602208 19048608c161480,357671 243729,638375 282213,833811 -216565,54329 -550844,105641 -1015665,103377l-14490947 -85267 128279 -3308832 -8824055 7915540 8187944 8523732 129788 -3360898 14820698 86777c4165280,20373 7499767,-1571790 9390744,-4484467z"/>
   <path class="fil14" d="M69615253 416417789c41502,-218828 136579,-543297 335034,-963598l6446373 -12833890 2945879 1512932 -3453711 -11339823 -11182115 3825719 2991908 1536324 -6586726 13131195c-1776280,3767616 -1740060,7462793 102623,10405653 1823065,2913432 5079076,4545588 9163615,4592372l20899592 239956 112433 -9771052 -20900347 -239956c-392381,-4527 -680631,-48293 -874558,-95832z"/>
   <rect class="fil15" x="1234416069" y="323277761" width="18414761" height="5570307"/>
   <rect class="fil15" x="1234416069" y="333454777" width="18414761" height="5570307"/>
   <rect class="fil15" x="1234416069" y="343631038" width="18414761" height="5570307"/>
   <path class="fil15" d="M1175858426 194285391l21239153 41299653 1352206 4996826 30938 -14337 21844326 47725653 0 26374067 -3833265 0 0 -25570440 -15135358 -33068698 -128189497 0 0 108018075 -3834774 0 0 -108018075 0 -6149824 0 -78031834 76188397 0 58102 1509c14930113,451993 24522329,8973461 30279772,22437425zm-88102455 80796615l26612515 0c706286,0 1284294,577253 1284294,1284294l0 6137751c0,707041 -578008,1284294 -1284294,1284294l-26612515 0c-706286,0 -1284294,-577253 -1284294,-1284294l0 -6137751c0,-707041 578008,-1284294 1284294,-1284294z"/>
   <path class="fil16" d="M1073164665 175678967l72297784 0c11445464,346352 20858090,5953633 26924156,20236316l21117665 41061960 4116987 15218362 -124456592 0 0 -76516638z"/>
   <polygon class="fil17" points="1175517356,202001723 1184252370,218986556 1151043320,252195605 1125323473,252195605 "/>
   <polygon class="fil17" points="1100032227,175678967 1135694416,175678967 1100703803,210669579 1073164665,238208717 1073164665,202546529 "/>
   <path class="fil17" d="M1148141961 175861575c4524460,488968 8695021,1895504 12423399,4447492l-26029979 26029979 -45855804 45856559 -15514912 0 0 -1356734 37984030 -37983275 0 0 36993266 -36994021z"/>
   <path class="fil0" d="M1186868497 212709962l4887412 0c2108296,0 3832510,1724215 3832510,3832510l0 15911821 2161871 0 0 3197154 5927978 12504894c1927196,4039264 1933987,8932713 -2321842,8932713l-3606136 0 0 3514832 -2161871 0 0 1162807c0,2108296 -1724214,3832510 -3832510,3832510l-4887412 0 0 -52889241z"/>
   <path class="fil12" d="M741455231 35036642l61659720 0 -61659720 61659720 0 -61659720zm-31627451 99469442l-108213511 108213510 0 -160165564 47517389 -47517388 60696122 0 0 99469442zm-139840962 139841716l-108214265 108214265 0 -160166319 108214265 -108214265 0 160166319z"/>
   <path class="fil12" d="M953770548 35036642l-72465301 72466055 0 -49912425 22553631 -22553630 49911670 0zm-104092752 104093506l-37722945 37723699 -70499620 70499621 0 -49912425 1307686 -1307686 0 -755 106914879 -106914879 0 49912425zm-139850016 139850771l-54307096 54307850c-7717841,-2150551 -15851455,-3300531 -24254454,-3300531 -9128149,0 -17937867,1362016 -26242770,3884576l104804320 -104804320 0 49912425z"/>
   <polygon class="fil12" points="332227076,433587494 287773281,433603341 358437400,362939222 358437400,398501051 "/>
   <rect class="fil18" x="283993591" y="355719404" width="46226303" height="7130778"/>
   <rect class="fil18" x="283993591" y="370991341" width="46226303" height="7130778"/>
   <rect class="fil18" x="283993591" y="386263278" width="46226303" height="7131532"/>
   <polygon class="fil7" points="260357893,353863892 255238825,353863892 299385507,228046039 304509102,228046039 260362421,353863138 "/>
   <path class="fil8" d="M367833425 398501051l25754558 0c9578634,-36484680 42778628,-63398272 82268799,-63398272 34641242,0 64442610,20710947 77705101,50424029 13262492,-29713082 43063106,-50424029 77704347,-50424029 39017050,0 71894839,26272199 81915656,62090585l354183080 0c10022327,-35819141 42900870,-62090585 81918674,-62090585 27664399,0 52239548,13209671 67774079,33661797l36926864 0c2189790,0 3985689,1792882 3985689,3985690l0 45928244c0,2192808 -1792881,3985690 -3985689,3985690l-21971095 0c-150916,0 -296550,-9055 -436902,-27165l-167315961 -755 -347977416 0 0 3019 -155409449 0 -14624508 0 -155409448 0 0 -3019 -40897462 0 17891083 -24135229z"/>
   <path class="fil0" d="M475856782 348751615c-39438859,0 -71410398,31971539 -71410398,71410399 0,4597653 439919,9091175 1269957,13447363l110163345 0 0 -5486548 69692220 0 0 5482775 115834765 0c830038,-4356188 1269958,-8849710 1269958,-13447363 0,-39438859 -31971539,-71410399 -71410399,-71410399 -39438859,0 -71410398,31971540 -71410398,71410399 0,839092 14337,1674412 43766,2505959l-12676184 0c29429,-830038 43766,-1664603 43766,-2502186 0,-39438860 -31971539,-71410399 -71410398,-71410399z"/>
   <circle class="fil19" cx="631266230" cy="420158241" r="65778212"/>
   <circle class="fil20" cx="631266230" cy="420158241" r="40445466"/>
   <circle class="fil21" cx="631266230" cy="420158241" r="39112123"/>
   <path class="fil22" d="M631266230 387809412c2210919,0 4370526,222601 6456184,645165l-289004 273913 -2666685 9334150 -42256 268630c-1126588,-177326 -2281849,-269385 -3458239,-269385 -1176389,0 -2330896,92059 -3457483,269385l-42257 -268630 -2666684 -9333396 -310133 -270139c2093204,-425583 4258093,-649693 6476557,-649693zm-12987824 14472837c-1873621,1364280 -3524642,3014546 -4888167,4888922l-223356 -162235 -8485248 -4713859 -404454 27919c2400317,-3625755 5512958,-6738396 9135695,-9141732l-10564 392382 4714614 8486002 161480 222601zm-8839146 14419262c-176572,1126588 -269385,2280340 -269385,3456730 0,1176389 92059,2330896 269385,3457484l-269385 43011 -9333396 2666684 -269384 309378c-425583,-2092450 -649694,-4258093 -649694,-6476557 0,-2210164 222601,-4369016 645166,-6454674l273158 288249 9334150 2666684 269385 43011zm3950979 16444554c1363525,1873622 3015300,3524642 4888921,4888167l-162989 224110 -4713859 8485248 27920 402946c-3624246,-2400318 -6736887,-5511450 -9140224,-9134187l390873 10565 8486002 -4714614 223356 -162235zm14418508 8839146c1126587,177326 2281094,269385 3457483,269385 1176390,0 2330897,-92813 3456730,-269385l43011 270140 2666684 9333395 308623 268631c-2092449,424828 -4257338,649693 -6475048,649693 -2210163,0 -4369770,-222601 -6454674,-645166l287495 -272403 2666684 -9334150 43012 -270140zm16444553 -3950224c1873622,-1363526 3524642,-3015300 4888167,-4888922l224111 162990 8485247 4713859 403701 -27920c-2400318,3624246 -5512205,6737642 -9134941,9140223l10564 -390872 -4714614 -8486003 -162235 -223355zm8839146 -14418508c177327,-1126587 270140,-2281094 270140,-3458238 0,-1176390 -92813,-2329388 -269385,-3455975l269385 -43011 9333395 -2666684 269385 -309378c424829,2092449 649693,4257338 649693,6475048 0,2210918 -221846,4370525 -645165,6456183l-273158 -288249 -9334150 -2666685 -270140 -43011zm-3949469 -16444554c-1364280,-1873621 -3015301,-3525396 -4888922,-4888921l162235 -223356 4713859 -8485248 -27920 -405209c3625001,2400318 6739151,5512959 9141732,9136450l-392381 -10564 -8486002 4714614 -222601 162234z"/>
   <circle class="fil19" cx="475856782" cy="420162014" r="65778212"/>
   <circle class="fil20" cx="475856782" cy="420162014" r="40445466"/>
   <circle class="fil21" cx="475856782" cy="420162014" r="39112123"/>
   <path class="fil22" d="M475856782 387813185c-2210918,0 -4370525,222601 -6456184,645165l289004 273913 2666685 9334150 42256 268630c1126588,-177326 2281849,-269385 3458239,-269385 1176389,0 2330896,92059 3457484,269385l42256 -268630 2666685 -9333396 310132 -270139c-2093204,-425583 -4258093,-649693 -6476557,-649693zm12987825 14472837c1873621,1364280 3524641,3014546 4888166,4888922l223356 -162235 8485248 -4713859 404455 27919c-2400318,-3625755 -5512959,-6738396 -9135696,-9141732l10564 392382 -4714613 8486002 -161480 222601zm8839145 14419262c176572,1126588 269385,2280340 269385,3456730 0,1176389 -92058,2330896 -269385,3457483l269385 43012 9333396 2666684 269385 309378c425583,-2092450 649693,-4258093 649693,-6476557 0,-2210164 -222601,-4369016 -645166,-6454675l-273158 288250 -9334150 2666684 -269385 43011zm-3950979 16444554c-1363525,1873622 -3015300,3524642 -4888921,4888167l162989 224110 4713859 8485248 -27919 402946c3624246,-2400318 6736887,-5511450 9140223,-9134187l-390872 10564 -8486003 -4714613 -223356 -162235zm-14418507 8839146c-1126588,177326 -2281095,269385 -3457484,269385 -1176390,0 -2330897,-92813 -3456729,-269385l-43012 270140 -2666684 9333395 -308623 268630c2092449,424829 4257338,649694 6475048,649694 2210164,0 4369770,-222601 6454674,-645166l-287495 -272403 -2666684 -9334150 -43011 -270140zm-16444554 -3950224c-1873621,-1363526 -3524642,-3015300 -4888167,-4888922l-224110 162989 -8485248 4713859 -403700 -27919c2400317,3624246 5512204,6737642 9134941,9140223l-10564 -390872 4714613 -8486003 162235 -223355zm-8839146 -14418508c-177326,-1126587 -270140,-2281094 -270140,-3458238 0,-1176390 92814,-2329388 269385,-3455975l-269385 -43011 -9333395 -2666685 -269385 -309377c-424828,2092449 -649693,4257338 -649693,6475048 0,2210918 221846,4370525 645166,6456183l273157 -288249 9334150 -2666685 270140 -43011zm3949470 -16444554c1364280,-1873621 3015300,-3525396 4888921,-4888921l-162234 -223356 -4713859 -8485248 27919 -405209c-3625001,2400318 -6739151,5512959 -9141732,9136450l392381 -10564 8486003 4714613 222601 162235z"/>
   <polygon class="fil23" points="636372471,411310040 631264721,411309285 626156972,411310040 623603474,415733386 621049222,420156732 623602720,424580077 626156972,429003423 631264721,429004178 636372471,429003423 638925968,424580077 641480220,420156732 638926723,415733386 "/>
   <polygon class="fil22" points="621678542,421246345 623603474,424579323 626157726,429003423 631264721,429003423 636373225,429003423 638925968,424580077 640854674,421239553 638929741,417907330 636376998,413483229 631268494,413483229 626161499,413483229 623607247,417907330 "/>
   <polygon class="fil23" points="470750541,411313813 475858291,411313058 480966041,411313813 483519538,415737159 486073790,420160504 483520293,424583850 480966041,429007196 475858291,429007951 470750541,429007196 468197044,424583850 465642792,420160504 468196289,415737159 "/>
   <polygon class="fil22" points="485444471,421250117 483519538,424583096 480965286,429007196 475858291,429007196 470749787,429007196 468197044,424583850 466268338,421243326 468193271,417911103 470746014,413487002 475854518,413487002 480961513,413487002 483515765,417911103 "/>
   <path class="fil0" d="M1149283640 348747842c-39441123,0 -71414171,31973049 -71414171,71414172 0,2690076 153934,5343933 443693,7957042l141940956 0c289759,-2613109 443693,-5266966 443693,-7957042 0,-39441123 -31973048,-71414172 -71414171,-71414172z"/>
   <circle class="fil19" cx="1149283640" cy="420162014" r="65778212"/>
   <circle class="fil20" cx="1149283640" cy="420162014" r="40445466"/>
   <circle class="fil21" cx="1149283640" cy="420162014" r="39112123"/>
   <path class="fil22" d="M1149283640 387813185c-2210918,0 -4370525,222601 -6456183,645165l289004 273913 2666684 9334150 42257 268630c1126587,-177326 2281848,-269385 3458238,-269385 1176390,0 2330897,92059 3457484,269385l42256 -268630 2666685 -9333396 310132 -270139c-2093204,-425583 -4258093,-649693 -6476557,-649693zm12987825 14472837c1873621,1364280 3524641,3014546 4888167,4888922l223355 -162235 8485248 -4713859 404455 27919c-2400318,-3625755 -5512959,-6738396 -9135696,-9141732l10564 392382 -4714613 8486002 -161480 222601zm8839146 14419262c176571,1126588 269385,2280340 269385,3456730 0,1176389 -92059,2330896 -269385,3457483l269385 43012 9333395 2666684 269385 309378c425583,-2092450 649693,-4258093 649693,-6476557 0,-2210164 -222601,-4369016 -645166,-6454675l-273157 288250 -9334150 2666684 -269385 43011zm-3950979 16444554c-1363526,1873622 -3015301,3524642 -4888922,4888167l162989 224110 4713859 8485248 -27919 402946c3624246,-2400318 6736887,-5511450 9140223,-9134187l-390872 10564 -8486003 -4714613 -223355 -162235zm-14418508 8839146c-1126587,177326 -2281094,269385 -3457484,269385 -1176390,0 -2330896,-92813 -3456729,-269385l-43011 270140 -2666685 9333395 -308623 268630c2092450,424829 4257339,649694 6475048,649694 2210164,0 4369771,-222601 6454674,-645166l-287495 -272403 -2666684 -9334150 -43011 -270140zm-16444554 -3950224c-1873621,-1363526 -3524641,-3015300 -4888167,-4888922l-224110 162989 -8485248 4713859 -403700 -27919c2400318,3624246 5512204,6737642 9134941,9140223l-10564 -390872 4714613 -8486003 162235 -223355zm-8839146 -14418508c-177326,-1126587 -270139,-2281094 -270139,-3458238 0,-1176390 92813,-2329388 269385,-3455975l-269385 -43011 -9333396 -2666685 -269385 -309377c-424828,2092449 -649693,4257338 -649693,6475048 0,2210918 221847,4370525 645166,6456183l273158 -288249 9334150 -2666685 270139 -43011zm3949470 -16444554c1364280,-1873621 3015300,-3525396 4888921,-4888921l-162234 -223356 -4713859 -8485248 27919 -405209c-3625000,2400318 -6739150,5512959 -9141732,9136450l392381 -10564 8486003 4714613 222601 162235z"/>
   <polygon class="fil23" points="1144177400,411313813 1149285149,411313058 1154392899,411313813 1156946396,415737159 1159500648,420160504 1156947151,424583850 1154392899,429007196 1149285149,429007951 1144177400,429007196 1141623902,424583850 1139069650,420160504 1141623148,415737159 "/>
   <polygon class="fil22" points="1158871329,421250117 1156946396,424583096 1154392144,429007196 1149285149,429007196 1144176645,429007196 1141623902,424583850 1139695197,421243326 1141620129,417911103 1144172872,413487002 1149281376,413487002 1154388371,413487002 1156942623,417911103 "/>
   <path class="fil24" d="M1258752017 379240405l-13549987 0c-5067002,0 -9213417,4146416 -9213417,9213418l0 14521130c0,5067003 4145661,9213418 9213417,9213418l13549987 0c2786662,0 2588208,-32947966 0,-32947966z"/>
   <path class="fil25" d="M1258752017 379240405l-13549987 0c-1697804,0 -3292985,465576 -4662547,1275995 -622528,1239019 -974917,2635746 -974917,4110949l0 14521131c0,5067002 4145660,9213417 9213417,9213417l11350387 0c1218646,-8679929 662521,-29121492 -1376353,-29121492z"/>
   <rect class="fil15" x="1234416069" y="353808053" width="18414761" height="5570307"/>
   <rect class="fil7" x="863287395" y="35036644" width="4408254" height="333761130"/>
   <rect class="fil7" x="723437378" y="35036644" width="4408254" height="333761130"/>
   <rect class="fil7" x="583596417" y="35036644" width="4408254" height="333761130"/>
   <path class="fil26" d="M887316229 198305792c2060002,-1973981 4753851,-2738370 7563906,-2738370l27370112 0c2938333,0 5746124,841356 7812918,3027374 1959643,2072075 2691585,4755360 2691585,7551078l0 4956834c0,2851556 -823246,5577852 -2877966,7631063 -2053212,2051702 -4777244,2873440 -7626537,2873440l-10799543 0 0 30994358c0,2874949 -800609,5628410 -2877967,7705013 -2075849,2074339 -4828555,2874194 -7701240,2874194l-5991362 0c-2809300,0 -5504659,-765144 -7563152,-2739124 -2036610,1971716 -4722159,2739124 -7527686,2739124l-5992117 0c-2873439,0 -5626901,-799855 -7703504,-2875703 -2076603,-2076603 -2874948,-4829310 -2874948,-7703504l0 -10503748 -2736106 0 0 10503748c0,2874949 -800609,5628410 -2877967,7705013 -2075848,2074339 -4828555,2874194 -7701239,2874194l-5991363 0c-2872684,0 -5625391,-799855 -7701239,-2874194 -1254866,-1254112 -2043402,-2754970 -2472003,-4380335 -350880,365971 -716096,724397 -1095650,1074521 -5850256,5397509 -13498675,7289240 -21279900,7289240 -7763115,0 -15372296,-1906823 -21205952,-7289240 -4571243,-4217345 -7025136,-9568824 -7845364,-15451527 -4581053,3225074 -10057792,4543324 -15776751,4543324l-3254502 0 0 6509004c0,2874949 -799854,5628410 -2877967,7705013 -2075848,2074339 -4828555,2874194 -7701239,2874194l-5991363 0c-2871930,0 -5625391,-800609 -7701240,-2874194 -2077357,-2076603 -2877966,-4830064 -2877966,-7705013l0 -31023787c-318433,19619 -639129,29429 -960580,29429l-3994745 0 0 30994358c0,2874194 -797590,5626146 -2874194,7703504 -2076603,2075848 -4830064,2875703 -7704258,2875703l-5992116 0c-2939843,0 -5749143,-842111 -7815936,-3030392 -1957380,-2072830 -2687813,-4754606 -2687813,-7548815l0 -30994358 -4068693 0c-9055,0 -17356,0 -26411,0 -1302404,1756661 -3176025,3040201 -5317522,3791008l-5814036 2039629 -119979 36974c-2598772,805136 -5294885,967371 -7824236,-183363 -2678758,-1217891 -4321477,-3510304 -5337896,-6191326 -230902,-608191 -1778544,-528960 -2264494,-528960 -413509,0 -1611027,23392 -2120368,201473 -82250,297304 -98096,830792 -98096,1055657l0 15090838c0,224864 15846,758352 98096,1055657 509341,178080 1706859,201472 2120368,201472 444448,0 2038120,61876 2229029,-433128 977180,-2686304 2641783,-5001354 5277530,-6262257 2641783,-1263166 5568043,-1119041 8157005,-128278l5695568 1996617c5854028,2051702 8716149,7805372 6446373,13543196 -4499558,12391706 -15216098,17397588 -27805505,17397588 -5049647,0 -10058546,-805137 -14561123,-2876458l-140352 1303914c-685158,6376198 -5709149,11498284 -12261919,11498284 -21756794,0 -43512834,0 -65269629,0 -6552769,0 -11576761,-5121332 -12262674,-11498284l-145633 -1352207c-1895504,1152243 -4119251,1816273 -6493913,1815519l-8280002 -2264c-6410154,124506 -11911794,-4647456 -12697312,-11010072l-6059274 -49075595c-1217892,-164499 -2404091,-480667 -3412964,-1061694 -4716122,-2716486 -6554278,-8606735 -4178107,-13511503l6404872 -13221744c1060184,-2189036 2317314,-4246774 4067184,-5749897 -4483712,-1478221 -7962324,-5435237 -8556933,-10416217l-2855329 -23918665c-67158,-522924 -99605,-1049621 -99605,-1576317 0,-1949079 452748,-3833265 1279013,-5519750 -5331106,-1447284 -9266993,-6331678 -9266993,-12113267 0,-6917232 5631428,-12548659 12548659,-12548659l112291260 0c6916476,0 12548659,5631427 12548659,12547904 0,5807245 -3969089,10708240 -9334905,12132132 826265,1687240 1275240,3563125 1275240,5501640 0,350125 -16601,700250 -44520,1048865 -9810,122242 -21129,243730 -33957,365217l-636865 5942315c3632547,0 7264338,0 10896885,0 6921004,0 13018762,6079648 12261919,13113085l-4410518 41001593c2445592,-455766 4943251,-650448 7428836,-650448 6490140,0 12951605,1320515 18238190,4851193 233165,-301077 488213,-590836 765898,-867767 2075849,-2074339 4828556,-2873439 7700486,-2873439l35137755 0c2052456,0 4043038,408228 5770270,1397482 1726479,-989254 3717814,-1397482 5769516,-1397482l19825071 0c6919495,0 13447364,1969453 18494747,6862902 810418,786272 1552925,1621592 2226010,2502186 863239,-1134888 1831364,-2198845 2900604,-3185835 5834410,-5382417 13443591,-7289240 21206706,-7289240 7781225,0 15429644,1891732 21279900,7289240 379554,350125 744770,708550 1095650,1074521 427846,-1625364 1217137,-3126978 2472003,-4381089 2076603,-2073585 4828555,-2872685 7701239,-2872685l5991363 0c2872684,0 5623882,799100 7700485,2872685 2078112,2075848 2878721,4830819 2878721,7705767l0 9838209 2736106 0 0 -9838209c0,-2873439 799100,-5626900 2874948,-7703503 2076603,-2075849 4830065,-2874949 7703504,-2874949l5992117 0c2804772,0 5491076,766653 7526932,2738370zm-321061562 40452259l-4251301 -39522617c-602155,375780 -1249584,690440 -1917387,959070l4711595 38160602c497268,105641 983972,240711 1457093,402945zm-6395062 -59452575l-2710450 -25199186c-315414,-2929279 558389,-5692549 2185263,-7920823l-6123414 0 1186199 9933286c587818,4925142 -1786090,9558261 -5715186,12081575 1820046,879840 3449183,2251666 4828555,3831755l6349033 7273393zm253716838 41469433c-532733,-182608 -1783826,-203736 -2213182,-203736 -440675,0 -1604236,49802 -2158098,269385 -52066,264857 -60366,657993 -60366,839847l0 15386633c0,181854 8300,574990 60366,839847 553862,219583 1717423,269385 2158098,269385 429356,0 1680449,-21128 2213182,-203736 66403,-267121 79231,-709305 79231,-905496l0 -15386633c0,-196191 -12828,-638374 -79231,-905496z"/>
   <path class="fil27" d="M569411074 148539001c29545566,0 59091131,0 88636697,0 2618391,0 5039837,2156589 4759888,4759888l-11683156 108611175c-279195,2603299 -2142252,4759888 -4759889,4759888 -21756794,0 -43513589,0 -65269629,0 -2618391,0 -4480694,-2156589 -4760643,-4759888l-11683156 -108611175c-279949,-2603299 2141497,-4759888 4759888,-4759888z"/>
   <path class="fil28" d="M531085974 111000928l112291260 0c2751951,0 5002863,2250911 5002863,5002108l0 755c0,2751197 -2250912,5002863 -5002863,5002863l-112291260 0c-2751952,0 -5002863,-2251666 -5002863,-5002863l0 -755c0,-2751197 2250911,-5002108 5002863,-5002108z"/>
   <path class="fil28" d="M558092380 245629253l4101140 0c2751952,0 5002863,2250911 5002863,5002863l0 0c0,2751952 -2251666,5002863 -5002863,5002863l-8307167 0 -104132 -1509c-2531615,57348 -4761398,-1826083 -5078321,-4390144l-6882521 -55743816c-3268085,227883 -5848747,259575 -6312059,-7546 -1213364,-698741 -1841174,-2262230 -1152997,-3682348l6404871 -13221745c1785336,-3683858 3480122,-5699340 7064375,-1593672l10397353 11910285c1069994,1225437 876067,2811564 -27165,3796290 -549334,599891 -3159425,1202045 -6427509,1706859l6324132 51221620z"/>
   <path class="fil28" d="M544709910 138639671l2194317 18374014c325979,2732333 -1623100,5241310 -4353924,5577098l0 0c-2731578,336542 -5251120,-1621592 -5577098,-4353925l-2859857 -23957148 -1509 -8301 -3019 -23392c-24901,-200718 -37729,-404454 -37729,-611209l0 0c0,-1580845 743261,-2996436 1897014,-3914759l16600 -12828 6037 -5282 89040 -68667 6037 -4527c529715,-398419 1144697,-695723 1817782,-857958l44521 -10564 12827 -3018 21883 -4527c115451,-25656 233165,-48294 352389,-65649l3018 -754c122997,-18865 246748,-31693 372008,-41502l41502 -2264 82249 -5282 11319 0 100359 -3773 26410 -755 101868 -754 24902 0 96196075 0 22637 0 35466 0 84513 1509 8300 0 101868 3773 26411 754 101113 6792 25656 1509 101868 9055 5282 754 101868 11319 20374 2264 0 0 4528 0 75458 10564 47538 6791 18865 2264 107150 18110 16601 3018 28674 5282c651202,120733 1251093,365217 1780053,707041l3018 1509 30184 20374c1368807,894932 2278075,2441065 2278075,4190181l0 0c0,147143 -7545,292777 -19619,437656 -4527,57348 -10564,115451 -16600,173553l-3376744 31533129c3209982,501041 5761215,1096404 6303003,1687994 903232,984727 1097159,2570853 27165,3796290l-10397352 11910285c-3583499,4104914 -5279794,2089431 -7063620,-1593672l-6405627 -13222499c-687422,-1419364 -59612,-2982853 1152998,-3681594 470103,-270894 3111886,-234674 6439582,755l2764026 -26039034 -85017733 0z"/>
   <path class="fil29" d="M645681720 252324638c802872,2207146 33956,3310341 -2307505,3310341l-5216409 0c-2072830,0 -3527660,-200718 -4363734,-602154 -836074,-401437 -1454829,-1203555 -1856266,-2407109l-4614254 -12941796 -27689300 0 -4714613 12941796c-401437,1203554 -1020192,2005672 -1855512,2407109 -836829,401436 -2290904,602154 -4364488,602154l-4614255 0c-2341460,0 -3110377,-1103195 -2308259,-3310341l25080718 -65209262c467839,-1136397 986236,-1888713 1555189,-2256193 568198,-368235 1454829,-552353 2658384,-552353l5316768 0c1204309,0 2106786,184118 2708941,552353 602154,367480 1103195,1086594 1504631,2156588l25079964 65308867zm-32182067 -51605701l-10353587 28632525 20666427 0 -10312840 -28632525z"/>
   <path class="fil29" d="M651505565 221902251c0,-6213208 1910596,-11083265 5732542,-14609416 3821946,-3526151 9185498,-5289603 16089901,-5289603 10800299,0 17703948,4142642 20712457,12427926 740242,1873622 122996,3156407 -1849475,3846847l-5695567 1997373c-1085086,344843 -1898522,394645 -2441065,147897 -542543,-246747 -1011137,-912287 -1405782,-1997372 -1380881,-3600099 -4487485,-5400526 -9320568,-5400526 -6509758,0 -9764260,2934560 -9764260,8802926l0 15090838c0,5868365 3254502,8802926 9764260,8802926 4833083,0 7939687,-1800427 9320568,-5399772 394645,-1085086 875312,-1763453 1442002,-2034347 567444,-271649 1368807,-209773 2404845,184872l5695567 1996618c1972471,691195 2589717,1973226 1849475,3846847 -3008509,8285284 -9912158,12427926 -20712457,12427926 -6904403,0 -12267955,-1762698 -16089901,-5289603 -3821946,-3525396 -5732542,-8395453 -5732542,-14609416l0 -14942941zm83664772 -18789033c1134133,0 1923423,221847 2367116,665540 443693,443693 665539,1232983 665539,2367116l0 4956834c0,1134133 -221846,1910595 -665539,2330142 -443693,418791 -1232983,628564 -2367116,628564l-11540541 0 0 38540155c0,1134888 -221846,1923424 -664785,2367117 -444447,443692 -1233737,666293 -2367871,666293l-5992116 0c-1134134,0 -1910596,-222601 -2330142,-666293 -418792,-443693 -627811,-1232229 -627811,-2367117l0 -38540155 -11614489 0c-1134134,0 -1923424,-209773 -2367117,-628564 -444447,-419547 -666293,-1196009 -666293,-2330142l0 -4956834c0,-1134133 221846,-1923423 666293,-2367116 443693,-443693 1232983,-665540 2367117,-665540l35137755 0zm31364857 0c5572571,0 9986107,1577826 13241363,4734233 3254502,3156407 4882131,7495994 4882131,13019517 0,5523523 -1615555,9851037 -4845156,12981788 -3230356,3132260 -7655965,4698013 -13278338,4698013l-10800298 0 0 14054800c0,1134888 -221847,1923424 -665540,2367117 -444447,443692 -1232983,666293 -2367870,666293l-5991363 0c-1134133,0 -1923423,-222601 -2367116,-666293 -444447,-443693 -666294,-1232229 -666294,-2367117l0 -46455695c0,-1134133 221847,-1923423 666294,-2367116 443693,-443693 1232983,-665540 2367116,-665540l19825071 0zm-1257884 24411406c2170171,0 3858920,-579517 5067757,-1738551 1208082,-1159035 1812500,-2798736 1812500,-4919105 0,-2120369 -604418,-3784971 -1812500,-4993808 -1208837,-1208082 -2897586,-1811746 -5067757,-1811746l-9542414 0 0 13463210 9542414 0zm24263508 -5622373c0,-6213208 1910595,-11083265 5732541,-14609416 3821946,-3526151 9185498,-5289603 16089902,-5289603 6953451,0 12341150,1763452 16163096,5289603 3821945,3526151 5733296,8396208 5733296,14609416l0 14942941c0,6213963 -1911351,11084020 -5733296,14609416 -3821946,3526905 -9209645,5289603 -16163096,5289603 -6904404,0 -12267956,-1762698 -16089902,-5289603 -3821946,-3525396 -5732541,-8395453 -5732541,-14609416l0 -14942941zm31660652 -221846c0,-5769516 -3279403,-8655028 -9838209,-8655028 -3156407,0 -5572571,727414 -7249247,2182244 -1677430,1454829 -2515014,3612173 -2515014,6472784l0 15386633c0,2860612 837584,5017955 2515014,6472784 1676676,1454830 4092840,2182245 7249247,2182245 6558806,0 9838209,-2884758 9838209,-8655029l0 -15386633zm58587827 -18567187c1134133,0 1910595,221847 2330142,665540 419546,443693 628564,1232983 628564,2367116l0 46455695c0,1134888 -209018,1923424 -628564,2367117 -419547,443692 -1196009,666293 -2330142,666293l-5992117 0c-1134133,0 -1923424,-222601 -2367117,-666293 -443692,-443693 -665539,-1232229 -665539,-2367117l0 -18049545 -17827698 0 0 18049545c0,1134888 -221847,1923424 -666294,2367117 -443693,443692 -1232229,666293 -2367116,666293l-5991363 0c-1134133,0 -1923423,-222601 -2367871,-666293 -443692,-443693 -665539,-1232229 -665539,-2367117l0 -46455695c0,-1134133 221847,-1923423 665539,-2367116 444448,-443693 1233738,-665540 2367871,-665540l5991363 0c1134887,0 1923423,221847 2367116,665540 444447,443693 666294,1232983 666294,2367116l0 17384006 17827698 0 0 -17384006c0,-1134133 221847,-1923423 665539,-2367116 443693,-443693 1232984,-665540 2367117,-665540l5992117 0zm42460950 0c1134133,0 1910596,221847 2330142,665540 419546,443693 628565,1232983 628565,2367116l0 4956834c0,1085085 -221846,1849474 -665539,2293167 -443693,442938 -1208082,665539 -2293168,665539l-18345340 0 0 38540155c0,1134888 -221846,1923424 -666294,2367117 -443692,443692 -1232228,666293 -2367116,666293l-5991362 0c-1134133,0 -1923424,-222601 -2367871,-666293 -443693,-443693 -665539,-1232229 -665539,-2367117l0 -46455695c0,-1134133 221846,-1923423 665539,-2367116 444447,-443693 1233738,-665540 2367871,-665540l27370112 0z"/>
   <rect class="fil26" x="107550234" y="31484081" width="98227404" height="104940142" rx="7877563" ry="10084834"/>
   <rect class="fil3" x="115216008" y="39149855" width="82895860" height="89608595" rx="1785298" ry="1453320"/>
   <path class="fil10" d="M190555504 39149855l5771780 0c981708,0 1784581,802873 1784581,1784581l0 36031178 -51792837 51792836 -29318437 0c-981708,0 -1784581,-802872 -1784581,-1784580l0 -12484520 75339494 -75339495z"/>
   <rect class="fil26" x="138328029" y="69821254" width="36667288" height="39693152"/>
   <rect class="fil3" x="143931538" y="75595297" width="3809118" height="29047543"/>
   <rect class="fil3" x="151149092" y="75595297" width="3809118" height="29047543"/>
   <rect class="fil3" x="158365892" y="75595297" width="3809118" height="29047543"/>
   <rect class="fil3" x="165582691" y="75595297" width="3809118" height="29047543"/>
   <path class="fil26" d="M148001740 56477267l17320621 0 0 6585971 12303421 0 0 4420328 -41928217 0 0 -4420328 12304175 0 0 -6585971zm14080456 6585971l0 -3345806 -10840291 0 0 3345806 10840291 0z"/>
  </g>
 </g>
</svg>
