<?xml version="1.0" encoding="utf-8"?>
<!-- Generator: Adobe Illustrator 21.1.0, SVG Export Plug-In . SVG Version: 6.00 Build 0)  -->
<svg version="1.1" id="Слой_1" xmlns="http://www.w3.org/2000/svg" xmlns:xlink="http://www.w3.org/1999/xlink" x="0px" y="0px"
	 viewBox="0 0 1920 830" style="enable-background:new 0 0 1920 830;" xml:space="preserve">
<style type="text/css">
	.st0{fill:url(#SVGID_1_);}
</style>
<g id="Слой_x0020_1">
	
		<linearGradient id="SVGID_1_" gradientUnits="userSpaceOnUse" x1="-15424" y1="-9481373" x2="-15424" y2="-5413493" gradientTransform="matrix(8.753856e-05 0 0 -8.753856e-05 653.9427 19.0712)">
		<stop  offset="0" style="stop-color:#FFFFFF"/>
		<stop  offset="0.6" style="stop-color:#F4F4F4"/>
		<stop  offset="1" style="stop-color:#E8E8E8"/>
	</linearGradient>
	<path class="st0" d="M6.181,830H0V597.95h6.181v-58.633h7.694v-4.525H9.582v-11.798h13.93v-6.298h43.44v6.298h13.85v11.798h-4.292
		v4.525h7.815v222.288H97.57V507.45h3.156v-4.238h67.058v4.238h3.294v56.42h9.583v-3.443h2.066l0.971-23.685h1.944l0.972,23.685
		h2.066v3.443h9.84v-7.567h38.51v7.567h7.557v210.947h9.272V473.905l91.058,64.638v254.151h6.953V559.525v-6.682v-6.683h14.784
		v-4.494h10.606v4.494H380V0H1540v546.161h2.74v-4.494h10.606v4.494h14.784v6.683v6.682v233.169h6.953V538.543l91.058-64.639
		v300.914h9.272V563.87h7.557v-7.569h38.51v7.569h9.84v-3.443h2.066l0.972-23.685h1.944l0.971,23.685h2.066v3.443h9.583v-56.42
		h3.294v-4.238h67.059v4.238h3.155v254.154h13.245V539.316h7.815v-4.525h-4.292v-11.798h13.85v-6.298h43.44v6.298h13.93v11.798
		h-4.292v4.525h7.694v58.633H1920V830h-6.181C1277.94,830,642.06,830,6.181,830L6.181,830z"/>
</g>
</svg>
