<?xml version="1.0" encoding="utf-8"?>
<!-- Generator: Adobe Illustrator 21.1.0, SVG Export Plug-In . SVG Version: 6.00 Build 0)  -->
<svg version="1.1" id="Слой_1" xmlns="http://www.w3.org/2000/svg" xmlns:xlink="http://www.w3.org/1999/xlink" x="0px" y="0px"
	 viewBox="0 0 462 180" style="enable-background:new 0 0 462 180;" xml:space="preserve">
<style type="text/css">
	.st0{fill:#CBDB3D;}
	.st1{fill:#303030;}
</style>
<g id="Слой_x0020_1">
	<path class="st0" d="M50.346,43.405c34.164,0,68.327,0,102.491,0c3.027,0,5.827,2.494,5.503,5.505l-13.509,125.586
		c-0.324,3.01-2.477,5.505-5.503,5.505c-25.157,0-50.315,0-75.472,0c-3.027,0-5.181-2.494-5.505-5.505L44.841,48.909
		C44.518,45.899,47.318,43.405,50.346,43.405z"/>
	<path class="st1" d="M6.03,0h129.842c3.182,0,5.784,2.603,5.784,5.784l0,0c0,3.182-2.603,5.784-5.784,5.784H6.03
		c-3.183,0-5.786-2.603-5.786-5.784l0,0C0.245,2.603,2.848,0,6.03,0z"/>
	<path class="st1" d="M37.258,155.671H42c3.182,0,5.784,2.603,5.784,5.786l0,0c0,3.182-2.604,5.784-5.784,5.784h-9.606l-0.12-0.001
		c-2.926,0.066-5.506-2.112-5.872-5.077l-7.959-64.457c-3.778,0.263-6.762,0.301-7.298-0.008c-1.403-0.808-2.129-2.616-1.333-4.257
		l7.407-15.289c2.063-4.259,4.024-6.59,8.168-1.842L37.408,90.08c1.238,1.417,1.013,3.251-0.032,4.39
		c-0.635,0.693-3.653,1.39-7.432,1.973L37.258,155.671z"/>
	<path class="st1" d="M21.784,31.959l2.537,21.246c0.377,3.159-1.877,6.06-5.035,6.449l0,0c-3.158,0.389-6.071-1.875-6.448-5.035
		L9.53,26.917l-0.001-0.009L9.525,26.88c-0.028-0.233-0.044-0.468-0.044-0.707l0,0c0-1.827,0.86-3.464,2.194-4.526l0.019-0.015
		l0.006-0.006l0.104-0.08l0.007-0.004c0.612-0.462,1.323-0.805,2.102-0.992l0.051-0.013l0.015-0.004l0.025-0.005
		c0.133-0.031,0.27-0.057,0.407-0.077h0.004c0.142-0.022,0.286-0.038,0.43-0.048l0.048-0.002l0.096-0.006l0.013-0.001l0.116-0.004
		l0.031-0.001l0.118-0.001h0.027h111.232h0.026h0.041l0.098,0.002h0.009l0.118,0.004l0.03,0.002l0.117,0.007l0.031,0.002
		l0.117,0.009l0.007,0.001l0.118,0.013l0.022,0.002l0,0l0.006,0.001l0.087,0.011l0.054,0.008l0.022,0.004l0.124,0.02l0.019,0.004
		l0.033,0.006c0.752,0.139,1.447,0.423,2.058,0.817l0.004,0.002l0.034,0.024c1.584,1.035,2.635,2.823,2.635,4.844l0,0
		c0,0.171-0.008,0.34-0.024,0.507c-0.005,0.067-0.012,0.133-0.018,0.201l-3.906,36.462c3.712,0.58,6.662,1.267,7.289,1.952
		c1.044,1.138,1.267,2.973,0.031,4.39l-12.022,13.771c-4.143,4.746-6.105,2.416-8.168-1.844l-7.407-15.288
		c-0.795-1.642-0.068-3.45,1.333-4.257c0.543-0.313,3.598-0.272,7.446,0.001l3.196-30.109H21.784z"/>
	<path class="st1" d="M138.537,163.413c0.928,2.552,0.039,3.828-2.668,3.828h-6.031c-2.397,0-4.08-0.231-5.046-0.696
		c-0.967-0.464-1.682-1.392-2.146-2.785l-5.337-14.964H85.292l-5.451,14.964c-0.464,1.392-1.18,2.321-2.146,2.785
		c-0.967,0.464-2.649,0.696-5.046,0.696h-5.336c-2.707,0-3.596-1.275-2.669-3.828l29-75.401c0.542-1.314,1.142-2.185,1.799-2.61
		c0.658-0.425,1.682-0.638,3.074-0.638h6.148c1.392,0,2.436,0.213,3.132,0.638c0.696,0.425,1.275,1.257,1.74,2.494L138.537,163.413z
		 M101.325,103.741l-11.973,33.107h23.897L101.325,103.741z"/>
	<path class="st1" d="M145.271,128.236c0-7.185,2.21-12.816,6.629-16.894c4.419-4.077,10.621-6.116,18.604-6.116
		c12.489,0,20.472,4.79,23.95,14.37c0.855,2.167,0.143,3.65-2.139,4.448l-6.586,2.31c-1.254,0.399-2.195,0.457-2.823,0.171
		c-0.627-0.285-1.169-1.055-1.625-2.309c-1.597-4.164-5.189-6.245-10.778-6.245c-7.526,0-11.29,3.393-11.29,10.179v17.449
		c0,6.786,3.764,10.179,11.29,10.179c5.588,0,9.181-2.081,10.778-6.244c0.456-1.254,1.012-2.038,1.668-2.353
		c0.657-0.313,1.583-0.242,2.78,0.214l6.586,2.31c2.282,0.798,2.994,2.28,2.139,4.448c-3.478,9.58-11.461,14.37-23.95,14.37
		c-7.983,0-14.185-2.038-18.604-6.116c-4.419-4.077-6.629-9.708-6.629-16.893C145.271,145.514,145.271,128.236,145.271,128.236z
		 M242.013,106.51c1.312,0,2.224,0.256,2.738,0.769c0.513,0.514,0.77,1.427,0.77,2.738v5.731c0,1.312-0.257,2.21-0.77,2.695
		c-0.514,0.484-1.425,0.726-2.738,0.726h-13.344v44.565c0,1.312-0.256,2.224-0.769,2.738c-0.514,0.513-1.427,0.77-2.738,0.77h-6.929
		c-1.311,0-2.21-0.257-2.694-0.77c-0.485-0.514-0.728-1.425-0.728-2.738v-44.565h-13.429c-1.312,0-2.224-0.242-2.738-0.726
		c-0.514-0.485-0.77-1.383-0.77-2.695v-5.731c0-1.311,0.256-2.224,0.77-2.738c0.514-0.513,1.425-0.769,2.738-0.769H242.013
		L242.013,106.51z M278.28,106.51c6.443,0,11.548,1.825,15.311,5.474c3.764,3.649,5.645,8.668,5.645,15.055
		s-1.867,11.391-5.603,15.01c-3.734,3.622-8.853,5.433-15.354,5.433h-12.488v16.252c0,1.312-0.256,2.224-0.77,2.738
		c-0.514,0.513-1.425,0.77-2.738,0.77h-6.928c-1.312,0-2.224-0.257-2.738-0.77c-0.514-0.514-0.77-1.425-0.77-2.738v-53.717
		c0-1.311,0.256-2.224,0.77-2.738c0.514-0.513,1.425-0.769,2.738-0.769H278.28z M276.826,134.736c2.51,0,4.463-0.67,5.86-2.01
		c1.397-1.34,2.095-3.236,2.095-5.688c0-2.453-0.698-4.377-2.095-5.774c-1.397-1.398-3.35-2.096-5.86-2.096h-11.034v15.568H276.826
		L276.826,134.736z M304.881,128.236c0-7.185,2.21-12.816,6.629-16.894c4.419-4.077,10.621-6.116,18.604-6.116
		c8.041,0,14.271,2.04,18.69,6.116c4.419,4.078,6.629,9.709,6.629,16.894v17.278c0,7.185-2.21,12.816-6.629,16.893
		c-4.419,4.078-10.649,6.116-18.69,6.116c-7.983,0-14.185-2.038-18.604-6.116c-4.419-4.077-6.629-9.708-6.629-16.893
		L304.881,128.236L304.881,128.236z M341.491,127.979c0-6.671-3.792-10.008-11.376-10.008c-3.649,0-6.443,0.841-8.381,2.524
		c-1.939,1.682-2.909,4.177-2.909,7.484v17.792c0,3.308,0.97,5.802,2.909,7.485c1.938,1.682,4.732,2.523,8.381,2.523
		c7.584,0,11.376-3.335,11.376-10.008V127.979z M409.236,106.51c1.312,0,2.21,0.256,2.695,0.769
		c0.484,0.514,0.728,1.427,0.728,2.738v53.717c0,1.312-0.243,2.224-0.728,2.738c-0.485,0.513-1.383,0.77-2.695,0.77h-6.928
		c-1.312,0-2.224-0.257-2.738-0.77c-0.513-0.514-0.77-1.425-0.77-2.738v-20.87h-20.614v20.87c0,1.312-0.256,2.224-0.77,2.738
		c-0.513,0.513-1.425,0.77-2.738,0.77h-6.928c-1.312,0-2.224-0.257-2.738-0.77c-0.514-0.514-0.77-1.425-0.77-2.738v-53.717
		c0-1.311,0.256-2.224,0.77-2.738c0.514-0.513,1.425-0.769,2.738-0.769h6.928c1.312,0,2.225,0.256,2.738,0.769
		c0.514,0.514,0.77,1.427,0.77,2.738v20.102H398.8v-20.102c0-1.311,0.257-2.224,0.77-2.738c0.514-0.513,1.425-0.769,2.738-0.769
		H409.236z M458.334,106.51c1.312,0,2.21,0.256,2.695,0.769c0.484,0.514,0.726,1.427,0.726,2.738v5.731
		c0,1.254-0.256,2.139-0.77,2.652c-0.513,0.513-1.396,0.769-2.651,0.769h-21.213v44.565c0,1.312-0.256,2.224-0.77,2.738
		c-0.514,0.513-1.425,0.77-2.738,0.77h-6.928c-1.312,0-2.224-0.257-2.738-0.77c-0.514-0.514-0.77-1.425-0.77-2.738v-53.717
		c0-1.311,0.256-2.224,0.77-2.738c0.514-0.513,1.425-0.769,2.738-0.769H458.334L458.334,106.51z"/>
</g>
</svg>
