<?xml version="1.0" encoding="utf-8"?>
<!-- Generator: Adobe Illustrator 21.1.0, SVG Export Plug-In . SVG Version: 6.00 Build 0)  -->
<svg version="1.1" id="Слой_1" xmlns="http://www.w3.org/2000/svg" xmlns:xlink="http://www.w3.org/1999/xlink" x="0px" y="0px"
	 viewBox="0 0 44 53" style="enable-background:new 0 0 44 53;" xml:space="preserve">
<style type="text/css">
	.st0{fill:#FEFEFE;}
	.st1{fill:#CAD1D8;}
	.st2{fill:#E9EFF5;}
	.st3{fill:#C9D337;}
	.st4{fill:#FFFFFF;}
</style>
<g id="Слой_x0020_1">
	<g id="_1190644400">
		<path class="st0" d="M9.601,1.702c-1.704,0-3.099,1.395-3.099,3.1v43.394c0,1.705,1.394,3.1,3.099,3.1h30.996
			c1.704,0,3.099-1.394,3.099-3.1V14.101L31.299,1.702H9.601z"/>
		<path class="st1" d="M34.398,14.101h9.299L31.299,1.702v9.3C31.299,12.707,32.693,14.101,34.398,14.101L34.398,14.101z"/>
		<polygon class="st2" points="43.697,23.4 34.398,14.101 43.697,14.101 		"/>
		<path class="st3" d="M37.498,41.998c0,0.853-0.697,1.55-1.55,1.55H1.852c-0.852,0-1.549-0.697-1.549-1.55V26.5
			c0-0.853,0.697-1.55,1.549-1.55h34.095c0.853,0,1.55,0.697,1.55,1.55V41.998z"/>
		<path class="st4" d="M7.059,31.067c0-0.409,0.322-0.856,0.841-0.856h2.863c1.611,0,3.062,1.079,3.062,3.146
			c0,1.959-1.451,3.049-3.062,3.049H8.694v1.637c0,0.546-0.348,0.854-0.794,0.854c-0.409,0-0.841-0.308-0.841-0.854V31.067
			L7.059,31.067z M8.694,31.772v3.087h2.068c0.831,0,1.489-0.733,1.489-1.501c0-0.867-0.658-1.586-1.489-1.586H8.694z"/>
		<path class="st4" d="M16.252,38.898c-0.409,0-0.856-0.223-0.856-0.767v-7.04c0-0.445,0.447-0.769,0.856-0.769h2.837
			c5.663,0,5.539,8.575,0.112,8.575H16.252z M17.033,31.835v5.551h2.056c3.347,0,3.495-5.551,0-5.551H17.033L17.033,31.835z"/>
		<path class="st4" d="M26.637,31.934v1.97h3.159c0.447,0,0.893,0.447,0.893,0.878c0,0.41-0.447,0.745-0.893,0.745h-3.159v2.602
			c0,0.434-0.308,0.768-0.743,0.768c-0.546,0-0.878-0.334-0.878-0.768V31.09c0-0.446,0.335-0.77,0.878-0.77h4.351
			c0.546,0,0.868,0.324,0.868,0.77c0,0.396-0.322,0.843-0.868,0.843L26.637,31.934L26.637,31.934L26.637,31.934z"/>
		<path class="st1" d="M35.948,43.548H6.502v1.55h29.445c0.853,0,1.55-0.698,1.55-1.55v-1.55
			C37.498,42.85,36.8,43.548,35.948,43.548z"/>
	</g>
</g>
</svg>
